<?xml version="1.0" encoding="UTF-8"?>
<svg version="1.1" xmlns="http://www.w3.org/2000/svg" width="512" height="512">
    <path d="M0 0 C1.77236526 -0.01913956 1.77236526 -0.01913956 3.58053589 -0.03866577 C4.85349518 -0.04089142 6.12645447 -0.04311707 7.43798828 -0.04541016 C8.74986115 -0.05206696 10.06173401 -0.05872375 11.4133606 -0.06558228 C14.18901866 -0.07754461 16.96455236 -0.08126421 19.74023438 -0.08007812 C23.28671216 -0.07987504 26.83238765 -0.1071695 30.37867546 -0.14162254 C33.77345794 -0.1692883 37.1680946 -0.16804202 40.56298828 -0.17041016 C42.46635452 -0.19196671 42.46635452 -0.19196671 44.40817261 -0.21395874 C55.57522554 -0.15611308 55.57522554 -0.15611308 60.13330078 4.29052734 C62.17112768 7.53023338 62.38444165 10.06629682 62.38777637 13.86001492 C62.39360857 15.00048257 62.39944076 16.14095023 62.40544969 17.31597751 C62.40167036 18.56936469 62.39789104 19.82275187 62.39399719 21.11412048 C62.39701713 22.45869632 62.40090582 23.80327044 62.40558976 25.14784151 C62.41589879 28.84609362 62.41368058 32.5442491 62.40940917 36.24250925 C62.40694721 40.22963094 62.41594948 44.21672905 62.42344666 48.20384216 C62.43621035 56.01624937 62.43798528 63.82862223 62.43564639 71.64103811 C62.43386498 77.98958862 62.43560907 84.33812868 62.43987083 90.68667793 C62.44046602 91.58946012 62.44106121 92.49224231 62.44167444 93.42238154 C62.44288616 95.25624875 62.44410029 97.09011596 62.44531681 98.92398316 C62.45619873 116.13045808 62.45402674 133.33691342 62.44793197 150.54338945 C62.44276189 166.29224046 62.45401948 182.04102963 62.47303019 197.78986841 C62.49239126 213.95259241 62.50066765 230.11528714 62.49690694 246.27802283 C62.4949923 255.35545833 62.49750795 264.43284119 62.51162148 273.51026726 C62.5235142 281.23768121 62.52496391 288.96501011 62.51283131 296.69242518 C62.50692782 300.63632166 62.50588356 304.58006241 62.51783371 308.52394867 C62.52864266 312.13309229 62.52564915 315.74194925 62.51157203 319.35107917 C62.50764905 321.27783636 62.51851282 323.20460605 62.5298689 325.13133377 C62.51905909 326.84594688 62.51905909 326.84594688 62.50803089 328.59519863 C62.50811341 330.07456422 62.50811341 330.07456422 62.50819761 331.58381599 C61.9715049 335.45867477 60.09294441 337.97596671 57.82931519 341.07678223 C55.26357504 342.91294268 53.1233739 342.68684744 49.99707031 342.71044922 C48.0996257 342.73431702 48.0996257 342.73431702 46.16384888 342.75866699 C44.78127091 342.75993436 43.39869158 342.76011104 42.01611328 342.75927734 C40.59748025 342.7663788 39.17885009 342.77407777 37.76022339 342.78234863 C34.78603129 342.79579893 31.81210463 342.79736038 28.83789062 342.79150391 C25.03215618 342.78561331 21.22769993 342.81616763 17.4222126 342.85662079 C14.49157895 342.88251444 11.56125214 342.88537369 8.63051987 342.88172913 C7.22791207 342.88341951 5.82528997 342.8930544 4.42279434 342.91087341 C2.45809447 342.9330844 0.49309309 342.92014346 -1.47167969 342.90576172 C-3.14688187 342.90884338 -3.14688187 342.90884338 -4.85592651 342.9119873 C-8.83890804 342.08985167 -10.32968807 340.39790152 -12.86669922 337.29052734 C-13.8965263 334.2010461 -13.99504632 332.08481125 -14.0009203 328.84688091 C-14.00537814 327.709021 -14.00983598 326.57116109 -14.01442891 325.39882058 C-14.01424455 324.14320268 -14.01406019 322.88758478 -14.01387024 321.59391785 C-14.01716911 320.25091883 -14.02089473 318.90792081 -14.02501172 317.56492406 C-14.03503697 313.86637122 -14.03874934 310.16783461 -14.04140103 306.46927011 C-14.04530245 302.48347875 -14.05488081 298.49770026 -14.06361389 294.51191711 C-14.08338147 284.88310012 -14.09344426 275.25428208 -14.10234168 265.62544987 C-14.10672354 261.09303005 -14.11209057 256.56061141 -14.11733055 252.02819252 C-14.13434208 236.96534435 -14.1488373 221.90249692 -14.15607929 206.83964062 C-14.15798924 202.93028449 -14.15990956 199.02092837 -14.16186523 195.11157227 C-14.16234897 194.13990222 -14.16283271 193.16823217 -14.16333111 192.16711757 C-14.17163539 176.41886691 -14.19697934 160.67069211 -14.22944591 144.92247459 C-14.26249358 128.76091175 -14.28052592 112.5993875 -14.28372353 96.43779069 C-14.28589061 87.36084019 -14.29466824 78.28400036 -14.32018471 69.20708275 C-14.3418603 61.47856632 -14.34995761 53.75018745 -14.34021793 46.02164408 C-14.33566425 42.0775784 -14.3376211 38.13379672 -14.35697937 34.18976974 C-14.37454797 30.57923782 -14.37366524 26.96919839 -14.35808208 23.35866169 C-14.35456602 21.43357382 -14.37077923 19.50848116 -14.38768655 17.58346432 C-14.34005006 11.22324847 -14.26698794 7.07077952 -9.86669922 2.29052734 C-6.69957097 0.00877651 -3.83966818 0.02817566 0 0 Z "
          fill="#B3E47C" transform="translate(407.86669921875,70.70947265625)"/>
    <path d="M0 0 C1.24501785 -0.01283524 2.49003571 -0.02567047 3.77278137 -0.03889465 C5.13847456 -0.04706232 6.50417224 -0.054506 7.86987305 -0.0612793 C8.55684958 -0.06535482 9.2438261 -0.06943035 9.9516201 -0.07362938 C13.58834915 -0.09448981 17.22504047 -0.10879108 20.86181641 -0.11816406 C24.61465188 -0.1292233 28.36689354 -0.16361663 32.11951923 -0.20333576 C35.00806261 -0.22950716 37.89646468 -0.23785634 40.7851162 -0.24144554 C42.16819452 -0.24631093 43.55126655 -0.25792379 44.9342289 -0.27648354 C46.87267355 -0.30087904 48.81140712 -0.29748975 50.75 -0.29296875 C52.40307915 -0.30176811 52.40307915 -0.30176811 54.08955383 -0.31074524 C57.76315679 0.29061965 59.41959862 1.61543167 62.0690918 4.17700195 C63.26611616 6.57105068 63.19758622 8.04617045 63.20331287 10.71952534 C63.20777072 11.68184112 63.21222856 12.6441569 63.21682149 13.63563377 C63.21663713 14.70029921 63.21645277 15.76496466 63.21626282 16.8618927 C63.21993951 17.98713417 63.22361619 19.11237564 63.2274043 20.27171534 C63.23847762 24.0680296 63.24229113 27.86431652 63.24609375 31.66064453 C63.25182132 34.37200659 63.25898898 37.08336452 63.26600647 39.79472351 C63.28578131 47.94970833 63.29583814 56.10469442 63.30473426 64.25969723 C63.30911528 68.09789822 63.31448255 71.93609782 63.31972313 75.77429771 C63.33673603 88.52952825 63.35123107 101.28475791 63.35847187 114.03999805 C63.36038183 117.35104689 63.36230216 120.66209572 63.36425781 123.97314453 C63.36474155 124.79611165 63.36522529 125.61907877 63.36572369 126.46698429 C63.37402724 139.80396631 63.39936933 153.14085873 63.43183849 166.4778016 C63.46488564 180.16347106 63.48291848 193.84909494 63.48611611 207.53480452 C63.48828333 215.22172868 63.49706289 222.90852216 63.52257729 230.59540749 C63.54425229 237.14077647 63.55235056 243.68598304 63.5426105 250.23138384 C63.53805637 253.57188429 63.54218371 256.91177689 63.55937195 260.25227737 C63.57695964 263.8721912 63.57004863 267.49124718 63.55683899 271.11116028 C63.56780824 272.16913356 63.57877748 273.22710684 63.59007913 274.31713992 C63.52721273 281.42469284 63.52721273 281.42469284 61.1636076 285.30611706 C57.74431304 288.36033443 55.654595 288.31705436 51.13818359 288.36987305 C49.27065681 288.39396744 49.27065681 288.39396744 47.36540222 288.41854858 C45.99971193 288.43003559 44.63401402 288.44064421 43.26831055 288.45043945 C42.58133402 288.45576313 41.89435749 288.46108681 41.18656349 288.46657181 C37.54984274 288.49329701 33.91315623 288.51267317 30.27636719 288.52709961 C27.26824522 288.54043723 24.2608019 288.56828523 21.25292969 288.60913086 C17.61954403 288.6584704 13.98677377 288.68322195 10.3530674 288.69032669 C8.96996151 288.69703588 7.58686918 288.71224974 6.2039547 288.7362175 C4.26560623 288.76789282 2.32678585 288.76490235 0.38818359 288.76049805 C-0.71386917 288.7685849 -1.81592194 288.77667175 -2.95137024 288.78500366 C-6.89650782 287.9799626 -8.38592533 286.21626184 -10.9309082 283.17700195 C-12.12384696 280.79112445 -12.05937815 279.33201053 -12.06512928 276.66850662 C-12.06958712 275.71377433 -12.07404497 274.75904204 -12.0786379 273.77537847 C-12.07845354 272.71917703 -12.07826917 271.6629756 -12.07807922 270.57476807 C-12.08175591 269.45839926 -12.0854326 268.34203046 -12.0892207 267.1918323 C-12.10029389 263.42549106 -12.10410752 259.65917738 -12.10791016 255.89282227 C-12.11417203 253.20278762 -12.12080546 250.51275596 -12.12782288 247.82272339 C-12.14759832 239.7315084 -12.157655 231.64029215 -12.16655067 223.54905903 C-12.17093192 219.74037477 -12.17629916 215.93169189 -12.18153954 212.12300873 C-12.19855313 199.46471571 -12.2130477 186.80642357 -12.22028828 174.14812088 C-12.22219823 170.86217498 -12.22411855 167.57622908 -12.22607422 164.2902832 C-12.22679983 163.06519783 -12.22679983 163.06519783 -12.2275401 161.81536326 C-12.23584186 148.58252087 -12.26118063 135.34976884 -12.2936549 122.11696592 C-12.32671138 108.53638277 -12.34473577 94.95584557 -12.34793252 81.37522197 C-12.35009896 73.74806922 -12.35886712 66.12104821 -12.38439369 58.49393463 C-12.4060815 51.99873288 -12.41416066 45.50369488 -12.40442691 39.00846103 C-12.39987647 35.69422083 -12.40398493 32.3803898 -12.42118835 29.06618118 C-12.43879945 25.47289006 -12.43185331 21.88046112 -12.4186554 18.28717041 C-12.42962464 17.23989187 -12.44059389 16.19261332 -12.45189553 15.11359906 C-12.39905935 9.17068092 -11.92327799 5.6908799 -7.9309082 1.17700195 C-5.21203256 -0.18243587 -3.0438366 0.02724842 0 0 Z "
          fill="#FFD367" transform="translate(288.930908203125,124.822998046875)"/>
    <path d="M0 0 C1.24501785 -0.01606293 2.49003571 -0.03212585 3.77278137 -0.04867554 C5.13847166 -0.06016254 6.50416958 -0.07077116 7.86987305 -0.08056641 C8.90033784 -0.08855192 8.90033784 -0.08855192 9.9516201 -0.09669876 C13.58834085 -0.12342397 17.22502736 -0.14280013 20.86181641 -0.15722656 C23.86993838 -0.17056419 26.87738169 -0.19841218 29.88525391 -0.23925781 C33.51863957 -0.28859735 37.15140983 -0.31334891 40.7851162 -0.32045364 C42.16822208 -0.32716283 43.55131442 -0.3423767 44.9342289 -0.36634445 C46.87257737 -0.39801977 48.81139774 -0.3950293 50.75 -0.390625 C51.85205276 -0.39871185 52.95410553 -0.40679871 54.08955383 -0.41513062 C58.03469142 0.38991044 59.52410892 2.15361121 62.0690918 5.19287109 C63.66695564 8.38859878 63.2170646 11.85504012 63.21626282 15.36541748 C63.21993951 16.22043893 63.22361619 17.07546038 63.2274043 17.95639157 C63.23846906 20.83828395 63.24228969 23.72014031 63.24609375 26.60205078 C63.25235629 28.66155106 63.2590029 30.7210502 63.26600647 32.7805481 C63.28343557 38.38808777 63.2939734 43.99561891 63.302212 49.60317898 C63.30735803 53.10452613 63.31343393 56.60587061 63.31972313 60.10721588 C63.33878039 71.05611032 63.35301048 82.00499798 63.3613351 92.95390582 C63.37111098 105.60369815 63.39743752 118.25331566 63.43783599 130.90304637 C63.46796948 140.67295252 63.48280134 150.44280848 63.48611611 160.21276021 C63.48846973 166.05141143 63.49747073 171.889876 63.52257729 177.72847748 C63.54581457 183.22124578 63.55010865 188.71370397 63.5398159 194.20650864 C63.53931938 196.22292231 63.54567405 198.23935102 63.55937195 200.25571823 C63.57702546 203.00831574 63.57001697 205.75979244 63.55683899 208.51239014 C63.56780824 209.31064799 63.57877748 210.10890584 63.59007913 210.93135333 C63.53011301 216.11827414 62.4937128 219.07261477 59.0690918 223.19287109 C56.35021616 224.55230891 54.18202019 224.34262463 51.13818359 224.36987305 C49.89316574 224.38270828 48.64814789 224.39554352 47.36540222 224.4087677 C45.99970904 224.41693537 44.63401136 224.42437905 43.26831055 224.43115234 C42.58133402 224.43522787 41.89435749 224.4393034 41.18656349 224.44350243 C37.54983445 224.46436285 33.91314312 224.47866413 30.27636719 224.48803711 C26.52353172 224.49909635 22.77129005 224.53348968 19.01866436 224.57320881 C16.13012098 224.59938021 13.24171891 224.60772939 10.3530674 224.61131859 C8.96998908 224.61618398 7.58691704 224.62779684 6.2039547 224.64635658 C4.26551004 224.67075208 2.32677648 224.6673628 0.38818359 224.6628418 C-0.71386917 224.66870804 -1.81592194 224.67457428 -2.95137024 224.68061829 C-6.62497319 224.07925339 -8.28141503 222.75444138 -10.9309082 220.19287109 C-12.53880929 216.97706892 -12.07887779 213.47064481 -12.07807922 209.93766785 C-12.08175591 209.07377373 -12.0854326 208.2098796 -12.0892207 207.31980687 C-12.10028573 204.40794151 -12.10410613 201.49611179 -12.10791016 198.58422852 C-12.11417262 196.50340155 -12.12081923 194.4225757 -12.12782288 192.3417511 C-12.14525152 186.67642913 -12.15578948 181.01111561 -12.16402841 175.34577346 C-12.16917406 171.80892206 -12.17524995 168.27207331 -12.18153954 164.73522377 C-12.20059585 153.6768745 -12.21482668 142.61853194 -12.2231515 131.5601694 C-12.23292993 118.78075673 -12.25926351 106.00151699 -12.2996524 93.22216529 C-12.32977477 83.35376179 -12.34461665 73.48540798 -12.34793252 63.61695939 C-12.35028722 57.71853715 -12.35930242 51.82029957 -12.38439369 45.9219265 C-12.40761186 40.37417021 -12.41193283 34.82672097 -12.40163231 29.27892876 C-12.40113533 27.24113191 -12.40750322 25.20332026 -12.42118835 23.16556931 C-12.43881083 20.38635 -12.43184881 17.60824421 -12.4186554 14.82902527 C-12.42962464 14.02007268 -12.44059389 13.21112008 -12.45189553 12.37765378 C-12.40855851 8.6039786 -12.08029663 6.42628585 -10.025424 3.21561146 C-6.65690498 -0.03747424 -4.59396949 0.05372572 0 0 Z "
          fill="#F8BF6D" transform="translate(171.930908203125,188.80712890625)"/>
    <path d="M0 0 C1.26496307 -0.01591187 2.52992615 -0.03182373 3.83322144 -0.04821777 C5.2157994 -0.04948514 6.59837874 -0.04966182 7.98095703 -0.04882812 C9.39959007 -0.05592958 10.81822022 -0.06362855 12.23684692 -0.07189941 C15.21103902 -0.08534971 18.18496568 -0.08691116 21.15917969 -0.08105469 C24.96491413 -0.07516409 28.76937038 -0.10571842 32.57485771 -0.14617157 C35.50549137 -0.17206522 38.43581817 -0.17492447 41.36655045 -0.17127991 C42.76915825 -0.17297029 44.17178034 -0.18260518 45.57427597 -0.20042419 C47.53897584 -0.22263518 49.50397722 -0.20969424 51.46875 -0.1953125 C53.14395218 -0.19839417 53.14395218 -0.19839417 54.85299683 -0.20153809 C58.83597835 0.62059755 60.32675839 2.3125477 62.86376953 5.41992188 C63.92467238 8.60263044 63.99476039 10.86939079 64.00421143 14.21383667 C64.00992157 15.42237305 64.01563171 16.63090942 64.02151489 17.87606812 C64.02276022 19.21734609 64.02388532 20.55862418 64.02490234 21.89990234 C64.0295311 23.31093475 64.03455584 24.72196591 64.03994751 26.13299561 C64.05306704 29.96774165 64.05951547 33.80247019 64.06395817 37.63723516 C64.06688932 40.03284917 64.07099419 42.42845838 64.07546234 44.82406998 C64.08913544 52.31892909 64.09880329 59.81377727 64.10266423 67.30864799 C64.10714615 75.96143421 64.12470098 84.61406255 64.15366483 93.26680076 C64.17527525 99.95478543 64.18536815 106.64272565 64.18670535 113.33074486 C64.18775374 117.32547647 64.19366886 121.32005963 64.21152496 125.31475449 C64.22799491 129.07240057 64.23016652 132.82978645 64.22138596 136.58745575 C64.22061503 137.96571423 64.22496574 139.34398664 64.23484421 140.72220993 C64.24754962 142.60544407 64.23990028 144.48878261 64.23126221 146.37203979 C64.23346205 147.95213994 64.23346205 147.95213994 64.23570633 149.5641613 C63.71765702 153.54178544 61.87800373 156.03058078 59.55978394 159.20617676 C56.99404379 161.04233721 54.85384265 160.81624197 51.72753906 160.83984375 C49.83009445 160.86371155 49.83009445 160.86371155 47.89431763 160.88806152 C46.51173966 160.88932889 45.12916033 160.88950557 43.74658203 160.88867188 C42.327949 160.89577333 40.90931884 160.9034723 39.49069214 160.91174316 C36.51650004 160.92519346 33.54257338 160.92675491 30.56835938 160.92089844 C26.76262493 160.91500784 22.95816868 160.94556217 19.15268135 160.98601532 C16.2220477 161.01190897 13.29172089 161.01476822 10.36098862 161.01112366 C8.95838082 161.01281404 7.55575872 161.02244893 6.15326309 161.04026794 C4.18856322 161.06247893 2.22356184 161.04953799 0.25878906 161.03515625 C-1.41641312 161.03823792 -1.41641312 161.03823792 -3.12545776 161.04138184 C-7.10843929 160.2192462 -8.59921932 158.52729605 -11.13623047 155.41992188 C-12.19713332 152.23721331 -12.26722132 149.97045296 -12.27667236 146.62600708 C-12.28238251 145.4174707 -12.28809265 144.20893433 -12.29397583 142.96377563 C-12.29522116 141.62249766 -12.29634626 140.28121957 -12.29736328 138.93994141 C-12.30199204 137.528909 -12.30701678 136.11787784 -12.31240845 134.70684814 C-12.32552797 130.8721021 -12.33197641 127.03737356 -12.33641911 123.20260859 C-12.33935026 120.80699458 -12.34345512 118.41138537 -12.34792328 116.01577377 C-12.36159638 108.52091466 -12.37126423 101.02606648 -12.37512517 93.53119576 C-12.37960709 84.87840954 -12.39716191 76.2257812 -12.42612576 67.57304299 C-12.44773619 60.88505832 -12.45782909 54.1971181 -12.45916629 47.50909889 C-12.46021468 43.51436728 -12.4661298 39.51978412 -12.4839859 35.52508926 C-12.50045585 31.76744318 -12.50262746 28.0100573 -12.49384689 24.252388 C-12.49307596 22.87412952 -12.49742667 21.49585711 -12.50730515 20.11763382 C-12.52001056 18.23439968 -12.51236122 16.35106114 -12.50372314 14.46780396 C-12.5051897 13.41440386 -12.50665627 12.36100376 -12.50816727 11.27568245 C-11.99011796 7.29805831 -10.15046466 4.80926297 -7.83224487 1.63366699 C-5.26650472 -0.20249346 -3.12630359 0.02360178 0 0 Z "
          fill="#EC6E7B" transform="translate(54.13623046875,252.580078125)"/>
</svg>
